<svg width="1727" height="6187" viewBox="0 0 1727 6187" fill="none" xmlns="http://www.w3.org/2000/svg">
<path d="M218.123 1C130.559 178.2 -47.7354 698.022 57.3416 1204.34C188.688 1837.23 781.086 1603.42 1252.86 1784.68C1724.63 1965.94 1699.17 2147.97 1550.4 2071.04C1401.63 1994.12 1394.26 1784.68 1550.4 1784.68C1706.54 1784.68 1706.54 1801.44 1646.23 1845.61C1585.92 1889.78 1356.06 1954.52 1373.48 2071.04C1390.91 2187.57 1437.82 2192.14 1373.48 2301.05C1309.15 2361.22 1185.18 2248.5 1327.24 2264.49C1469.31 2280.49 1550.4 2304.86 1550.4 2349.03C1550.4 2393.2 1295.08 2465.56 1571.84 2445.75C1657.02 2439.66 1729.5 2420.15 1788.3 2396.06M1788.3 2396.06C1920.54 2341.86 1983.51 2264.49 1965.88 2264.49C1940.42 2264.49 1912.94 2090.85 1859.33 2195.95C1805.72 2301.05 1873.4 2249.63 1788.3 2396.06ZM1685.1 2542.48C1667.67 2396.06 1727.98 2191.38 1738.71 2349.03C1749.43 2506.68 1631.49 2542.48 1709.89 2542.48C1725.19 2542.48 1746.54 2542.48 1770.2 2541.76M1770.2 2541.76C1867.78 2538.79 2004.72 2523.6 1919.64 2445.75C1813.93 2349.03 1788.3 2123.6 1788.3 2301.05C1788.3 2478.5 1830.51 2496.87 1770.2 2541.76ZM1685.1 2614.83C1624.78 2635.39 1571.17 2574.47 1550.4 2719.93C1533.78 2836.31 1702.07 2668.9 1788.3 2570.66C1811.68 2556.19 1840.8 2523.13 1770.2 2506.68C1681.96 2486.12 1437.82 2493.74 1604.01 2570.66C1770.2 2647.58 1773.55 2820.46 1709.89 2848.64C1646.23 2876.82 1604.01 3010.1 1604.01 2885.2C1604.01 2760.3 1593.29 2063.43 1738.71 2095.42C1884.13 2127.4 2129.39 2559.23 1919.64 2740.5C1709.89 2921.76 1514.88 3018.48 1295.08 3131.2C1075.27 3243.92 1075.94 2848.64 728.145 2848.64C380.346 2848.64 -17.7134 3109.87 57.3416 3428.99C132.397 3748.1 217.504 3707.74 355.551 3969.73C493.599 4231.72 599.48 4413.74 397.769 4465.53C196.059 4517.32 -69.9838 4670.4 18.4739 4916.4C106.931 5162.4 812.582 5275.88 858.821 5654.4C895.813 5957.21 1068.13 6134.97 1149.66 6186" stroke="black" stroke-width="2"/>
</svg>
