<svg width="133" height="200" viewBox="0 0 133 200" fill="none" xmlns="http://www.w3.org/2000/svg">
<g clip-path="url(#clip0_32_1083)">
<path d="M33.257 200C51.6074 200 66.5004 185.067 66.5004 166.667V133.333H33.257C14.9067 133.333 0.0136719 148.267 0.0136719 166.667C0.0136719 185.067 14.9067 200 33.257 200Z" fill="#0ACF83"/>
<path d="M0.0136719 100C0.0136719 81.6 14.9067 66.6666 33.257 66.6666H66.5004V133.333H33.257C14.9067 133.333 0.0136719 118.4 0.0136719 100Z" fill="#A259FF"/>
<path d="M0.0136719 33.3333C0.0136719 14.9333 14.9067 0 33.257 0H66.5004V66.6667H33.257C14.9067 66.6667 0.0136719 51.7333 0.0136719 33.3333Z" fill="#F24E1E"/>
<path d="M66.5 0H99.7434C118.094 0 132.987 14.9333 132.987 33.3333C132.987 51.7333 118.094 66.6667 99.7434 66.6667H66.5V0Z" fill="#FF7262"/>
<path d="M132.987 100C132.987 118.4 118.094 133.333 99.7434 133.333C81.393 133.333 66.5 118.4 66.5 100C66.5 81.6 81.393 66.6666 99.7434 66.6666C118.094 66.6666 132.987 81.6 132.987 100Z" fill="#1ABCFE"/>
</g>
<defs>
<clipPath id="clip0_32_1083">
<rect width="133" height="200" fill="white"/>
</clipPath>
</defs>
</svg>
