<svg width="20" height="19" viewBox="0 0 20 19" fill="none" xmlns="http://www.w3.org/2000/svg">
<path d="M14.86 13.6141C13.4614 14.5843 11.7584 15.1218 10 15.148C4.27273 15.148 1 9.19118 1 9.19118C2.01773 7.46513 3.42929 5.9571 5.14 4.76827M8.28182 3.4131C8.845 3.29313 9.4216 3.23316 10 3.23439C15.7273 3.23439 19 9.19118 19 9.19118C18.5033 10.0368 17.911 10.8328 17.2327 11.5665M11.7345 10.7697C11.5098 10.9892 11.2388 11.1652 10.9378 11.2873C10.6367 11.4094 10.3116 11.4751 9.98207 11.4804C9.6525 11.4856 9.32513 11.4305 9.0195 11.3181C8.71387 11.2058 8.43623 11.0386 8.20315 10.8264C7.97007 10.6143 7.78632 10.3616 7.66287 10.0835C7.53942 9.80536 7.47879 9.50743 7.48461 9.2075C7.49042 8.90756 7.56256 8.61177 7.69672 8.33776C7.83087 8.06375 8.0243 7.81714 8.26545 7.61263" stroke="black" stroke-width="2" stroke-linecap="round" stroke-linejoin="round"/>
<path d="M1 1L19 17.3812" stroke="black" stroke-width="2" stroke-linecap="round" stroke-linejoin="round"/>
</svg>
