<svg width="249" height="258" viewBox="0 0 249 258" fill="none" xmlns="http://www.w3.org/2000/svg">
<g clip-path="url(#clip0_337_1408)">
<path d="M201.082 0C250.252 49.6185 263.983 132.467 227.474 193.686C206.332 229.131 172.771 250.594 136.222 255.596H136.202L135.879 255.644C127.276 256.787 118.513 257.049 109.709 256.334L95.634 256.692C90.3637 257.216 85.0327 257.311 79.6816 257.097H79.0556L78.3892 257.049C74.391 256.835 70.3928 256.43 66.3744 255.81L65.6676 255.739L65.6272 255.691C42.9909 252.07 20.3545 241.828 0.0201416 224.272L42.7284 168.531L75.9257 163.41C87.4155 172.724 100.177 178.226 112.98 180.156C124.47 175.296 134.728 167.007 142.441 155.501C163.442 124.177 158.01 79.6564 132.103 51.9053L161.706 13.2681L201.082 0Z" fill="url(#paint0_radial_337_1408)"/>
<path d="M112.939 180.156C139.534 167.983 157.182 137.35 153.972 103.429C152.174 83.8012 143.916 65.6736 132.062 51.9053C141.634 61.5288 149.085 74.2967 153.103 88.5177C163.886 127.56 146.016 167.793 112.939 180.156Z" fill="#713490"/>
<path d="M135.879 255.62C127.276 256.763 118.513 257.025 109.709 256.31L95.634 256.668C90.3637 257.192 85.0327 257.287 79.6816 257.073H79.0556L78.3892 257.025C74.391 256.811 70.3928 256.406 66.3744 255.786L65.6676 255.715L65.6272 255.667C42.9909 252.047 20.3545 241.804 0.0201416 224.248L42.7284 168.507L75.9257 163.386C87.4155 172.7 100.177 178.202 112.98 180.132L135.919 255.596L135.879 255.62Z" fill="url(#paint1_radial_337_1408)"/>
<path d="M169.924 40.662C197.205 69.89 202.92 116.721 180.808 149.689C157.122 185.039 110.617 191.59 75.8854 163.386L30.9559 222.033C97.0073 279.083 186.038 263.1 227.474 193.662C263.983 132.467 250.272 49.5948 201.082 -0.0236816L169.924 40.6382V40.662Z" fill="url(#paint2_linear_337_1408)"/>
<path d="M30.9559 222.056C84.7703 269.031 167.34 268.316 214.773 209.86C232.3 188.85 243.75 160.98 246.557 131.657C251.464 82.3243 232.644 32.2532 201.082 0C240.115 37.732 260.025 103.811 242.7 161.028C211.28 263.457 100.46 285.014 30.9559 222.056Z" fill="#713490"/>
<path d="M201.082 0L170.126 40.8763V40.4475C190.662 61.8147 200.577 97.7124 191.147 128.679C174.528 183.872 113.667 195.663 75.7238 163.696L76.1277 163.648C64.9408 178.203 42.2236 207.573 30.9559 222.056C42.1025 207.311 64.4763 177.821 75.6633 163.172C75.7642 163.029 75.946 163.029 76.0671 163.124C113.969 194.567 173.478 182.776 190.339 128.346C199.769 97.7363 190.077 62.2196 169.763 40.9001C169.662 40.781 169.642 40.5904 169.763 40.4713L201.082 0Z" fill="#F5C0FF"/>
<path d="M123.379 249.546C163.806 248.283 200.88 225.868 222.527 189.565C255.139 134.897 245.91 58.9086 201.546 10.0524L178.345 40.3523C204.697 72.8199 208.049 120.604 185.574 154.12C171.6 174.939 149.812 187.326 125.742 188.064C108.8 188.588 91.6561 183.157 76.9556 172.676L40.0831 220.818C64.9407 240.279 94.2812 250.451 123.399 249.522L123.379 249.546Z" fill="url(#paint3_radial_337_1408)"/>
<path d="M201.082 0L161.665 13.2681L132.062 51.9053L169.924 40.6619L201.082 0Z" fill="url(#paint4_linear_337_1408)"/>
<path d="M132.062 51.9053C144.178 47.9987 158.374 43.3298 169.581 40.2808L185.21 20.0094C190.46 13.2919 195.751 6.62215 201.102 0C192.419 12.0533 179.415 29.1089 170.308 41.043C157.687 45.0449 144.844 48.4274 132.082 51.9053H132.062Z" fill="#F5C0FF"/>
<path d="M161.665 13.2681C152.296 26.6791 142.441 39.5661 132.062 51.9052C141.432 38.4942 151.306 25.6072 161.665 13.2681Z" fill="#F5C0FF"/>
<path d="M75.8853 163.41L42.7082 168.531L0 224.272L30.9559 222.056L75.8853 163.41Z" fill="url(#paint5_linear_337_1408)"/>
<path d="M30.9559 222.056C43.2938 205.477 62.9416 179.656 75.5622 163.053L75.9459 163.91C68.1716 165.054 49.6748 168.269 43.0111 168.865C30.4107 185.206 12.5802 208.312 0 224.248C12.0956 207.931 29.9462 184.587 42.3851 168.174C50.6845 166.459 67.4447 164.22 75.8449 162.862C76.2286 162.791 76.5113 163.386 76.2286 163.72C63.4262 180.275 43.7784 205.811 30.9559 222.033V222.056Z" fill="#F5C0FF"/>
</g>
<defs>
<radialGradient id="paint0_radial_337_1408" cx="0" cy="0" r="1" gradientUnits="userSpaceOnUse" gradientTransform="translate(157.032 159.983) rotate(-1.7929) scale(134.807 158.981)">
<stop stop-color="#8229B5"/>
<stop offset="0.18" stop-color="#B529A7"/>
<stop offset="0.34" stop-color="#D93DA5"/>
<stop offset="0.55" stop-color="#FD84A0"/>
<stop offset="0.86" stop-color="#F8F969"/>
<stop offset="1" stop-color="#F9F9F9"/>
</radialGradient>
<radialGradient id="paint1_radial_337_1408" cx="0" cy="0" r="1" gradientUnits="userSpaceOnUse" gradientTransform="translate(62.8922 262.94) rotate(-1.7929) scale(158.638 187.086)">
<stop stop-color="#8229B5"/>
<stop offset="0.18" stop-color="#B529A7"/>
<stop offset="0.34" stop-color="#D93DA5"/>
<stop offset="0.55" stop-color="#FD84A0"/>
<stop offset="0.86" stop-color="#F8F969"/>
<stop offset="1" stop-color="#F9F9F9"/>
</radialGradient>
<linearGradient id="paint2_linear_337_1408" x1="113.717" y1="-21.6686" x2="169.905" y2="267.663" gradientUnits="userSpaceOnUse">
<stop offset="0.09" stop-color="white"/>
<stop offset="0.26" stop-color="#F8F969"/>
<stop offset="0.5" stop-color="#FD84A0"/>
<stop offset="0.79" stop-color="#FE59C7"/>
<stop offset="1" stop-color="#8F226B"/>
</linearGradient>
<radialGradient id="paint3_radial_337_1408" cx="0" cy="0" r="1" gradientUnits="userSpaceOnUse" gradientTransform="translate(204.262 358.525) rotate(-1.7929) scale(162.96 192.183)">
<stop stop-color="#F9F9F9"/>
<stop offset="0.42" stop-color="#F8F997"/>
<stop offset="1" stop-color="#F8F969" stop-opacity="0"/>
</radialGradient>
<linearGradient id="paint4_linear_337_1408" x1="153.902" y1="-7.00881" x2="186.219" y2="53.3011" gradientUnits="userSpaceOnUse">
<stop offset="0.09" stop-color="white"/>
<stop offset="0.26" stop-color="#F8F969"/>
<stop offset="0.5" stop-color="#FD84A0"/>
<stop offset="0.79" stop-color="#FE59C7"/>
<stop offset="1" stop-color="#8F226B"/>
</linearGradient>
<linearGradient id="paint5_linear_337_1408" x1="16.1471" y1="150.596" x2="78.8178" y2="239.912" gradientUnits="userSpaceOnUse">
<stop offset="0.09" stop-color="white"/>
<stop offset="0.26" stop-color="#F8F969"/>
<stop offset="0.5" stop-color="#FD84A0"/>
<stop offset="0.79" stop-color="#FE59C7"/>
<stop offset="1" stop-color="#8F226B"/>
</linearGradient>
<clipPath id="clip0_337_1408">
<rect width="249" height="257.406" fill="white"/>
</clipPath>
</defs>
</svg>
