<svg width="107" height="107" viewBox="0 0 107 107" fill="none" xmlns="http://www.w3.org/2000/svg">
<g clip-path="url(#clip0_2192_762)">
<path d="M80.2886 53.353H80.1225C78.6387 53.1866 77.4834 53.1866 76.332 53.1866H73.1983C72.3908 53.1866 71.7493 53.1866 71.1504 53.1285L107 50.296C104.527 29.6599 96.123 15.7954 77.8234 9.3565C75.8451 8.69481 73.8668 8.36591 71.8885 8.36591C62.1629 8.36591 53.9212 16.2907 53.4266 26.6881V26.8545C53.2604 28.3404 53.2604 29.4974 53.2604 30.6505V33.7887C53.2604 34.8141 53.2604 35.5802 53.1445 36.3193L50.2852 0C29.6827 2.47649 15.8344 10.8927 9.40867 29.2188C8.74794 31.2 8.41951 33.1811 8.41951 35.1623C8.41951 44.9019 16.3328 53.1556 26.7152 53.6509H26.8814C28.3651 53.8173 29.5204 53.8173 30.6719 53.8173H33.8055C34.6131 53.8173 35.2545 53.8173 35.8534 53.8753L0 56.704C2.47292 77.3401 10.877 91.2046 29.1765 97.6435C31.1549 98.3052 33.1332 98.6341 35.1115 98.6341C44.8371 98.6341 53.0788 90.7093 53.5734 80.3119V80.1455C53.7396 78.6596 53.7396 77.5026 53.7396 76.3495V73.2113C53.7396 72.1859 53.7396 71.4198 53.8555 70.6807L56.7187 107C77.325 104.524 91.1695 96.1073 97.599 77.7812C98.2598 75.8 98.5882 73.8189 98.5882 71.8377C98.5882 62.0981 90.6749 53.8444 80.2925 53.3491L80.2886 53.353ZM53.2411 63.1428C46.8463 63.1428 44.3657 58.4066 43.8556 53.3181C43.8556 46.8792 48.6469 44.3525 53.7589 43.8572C60.1537 43.8572 62.6343 48.5934 63.1444 53.6819C63.1444 60.1208 58.3531 62.6475 53.2411 63.1428Z" fill="white"/>
</g>
<defs>
<clipPath id="clip0_2192_762">
<rect width="107" height="107" fill="white"/>
</clipPath>
</defs>
</svg>
