<svg width="365" height="365" viewBox="0 0 365 365" fill="none" xmlns="http://www.w3.org/2000/svg">
<path d="M273.882 181.998H273.315C268.254 181.431 264.313 181.431 260.385 181.431H249.695C246.94 181.431 244.752 181.431 242.709 181.233L365 171.571C356.564 101.176 327.896 53.8815 265.473 31.917C258.724 29.6599 251.975 28.5379 245.227 28.5379C212.051 28.5379 183.937 55.571 182.25 91.0388V91.6064C181.683 96.6751 181.683 100.622 181.683 104.555V115.26C181.683 118.758 181.683 121.372 181.287 123.893L171.534 0C101.254 8.44785 54.0145 37.1574 32.095 99.6715C29.8411 106.43 28.7208 113.188 28.7208 119.946C28.7208 153.17 55.7148 181.325 91.1314 183.015H91.6981C96.7595 183.582 100.701 183.582 104.628 183.582H115.318C118.073 183.582 120.261 183.582 122.304 183.78L0 193.429C8.43565 263.824 37.1037 311.119 99.5275 333.083C106.276 335.34 113.025 336.462 119.773 336.462C152.949 336.462 181.063 309.429 182.75 273.961V273.394C183.317 268.325 183.317 264.378 183.317 260.445V249.74C183.317 246.242 183.317 243.628 183.713 241.107L193.48 365C263.772 356.552 310.999 327.843 332.931 265.329C335.185 258.57 336.306 251.812 336.306 245.054C336.306 211.83 309.312 183.675 273.895 181.985L273.882 181.998ZM181.617 215.394C159.803 215.394 151.341 199.237 149.601 181.88C149.601 159.915 165.945 151.296 183.383 149.606C205.197 149.606 213.659 165.763 215.399 183.12C215.399 205.085 199.055 213.704 181.617 215.394Z" fill="black"/>
</svg>
