<svg width="183" height="177" viewBox="0 0 183 177" fill="none" xmlns="http://www.w3.org/2000/svg">
<path fill-rule="evenodd" clip-rule="evenodd" d="M93.1866 2.79659L7.32455 31.0252C0.414447 33.3896 -0.88458 38.6238 0.486615 44.1468L24.3382 140.077C25.4027 144.391 27.8564 147.694 32.7638 151.701L59.9712 173.323C64.4276 176.789 67.7293 176.951 74.0982 175.038L174.159 143.615C182.603 140.871 184.064 136.251 182.387 129.482L155.558 21.5495C154.692 18.048 153.05 17.3982 148.251 15.4128L114.603 2.34537C106.628 -0.885398 103.705 -0.813207 93.1866 2.77854V2.79659ZM44.7798 47.2512C36.6248 49.8683 34.7665 50.4639 29.1013 47.8107L14.7579 41.2589C13.2423 40.3204 13.4588 38.6418 16.4538 37.5589L99.0142 10.4854C105.924 8.10298 110.218 9.65519 113.502 11.1172L130.516 17.9758C131.201 18.1382 133.204 19.6002 131.364 20.0514L45.8263 46.8902L44.7618 47.2331L44.7798 47.2512ZM62.1363 158.433L39.3492 66.8162C38.3569 62.8094 39.1327 60.6616 42.723 59.4342L141.016 28.769C144.318 27.6139 146.393 29.4007 147.385 33.3896L170.01 124.392C171.002 128.399 171.237 131.937 165.788 133.615L71.7166 162.909C66.2679 164.587 63.3631 163.36 62.1363 158.433ZM134.81 48.28C136.109 50.8971 136.181 53.821 133.493 54.8137L129.126 56.8713L145.942 124.519C142.478 127.659 139.104 129.807 136.036 130.565C131.129 131.792 129.523 130.565 124.688 126.865L82.8305 86.995L94.215 132.803L104.264 132.587C104.264 132.587 105.636 138.128 97.9678 140.041L77.1112 146.538C76.191 145.456 76.0467 142.225 78.0313 141.088L83.1733 138.182L68.1082 77.6095L60.278 78.891C58.9789 76.2739 59.5202 71.9061 63.742 70.5163L86.0781 63.3328L129.307 103.51L118.752 61.0767L110.543 62.1416C109.082 58.9108 110.922 55.8244 113.917 54.7776L134.792 48.28H134.81Z" fill="#010101"/>
</svg>
