<svg width="191" height="191" viewBox="0 0 191 191" fill="none" xmlns="http://www.w3.org/2000/svg">
<g clip-path="url(#clip0_337_1398)">
<path d="M95.5 191C148.243 191 191 148.243 191 95.5C191 42.7568 148.243 0 95.5 0C42.7568 0 0 42.7568 0 95.5C0 148.243 42.7568 191 95.5 191Z" fill="url(#paint0_radial_337_1398)"/>
<path d="M95.5 191C148.243 191 191 148.243 191 95.5C191 42.7568 148.243 0 95.5 0C42.7568 0 0 42.7568 0 95.5C0 148.243 42.7568 191 95.5 191Z" fill="url(#paint1_radial_337_1398)"/>
<path d="M138.24 18.5679C161.929 35.1599 177.432 62.6386 177.432 93.7461C177.432 136.305 148.441 172.09 109.149 182.452C151.284 175.9 183.521 139.47 183.521 95.5001C183.521 62.4168 165.255 33.5874 138.24 18.5679Z" fill="url(#paint2_radial_337_1398)"/>
<path d="M138.764 27.7207C158.622 39.2928 171.747 59.8967 168.078 73.747C164.388 87.5972 145.296 89.4519 125.438 77.8798C105.58 66.3078 92.4557 45.7038 96.1249 31.8536C99.8143 18.0033 118.906 16.1486 138.764 27.7207Z" fill="url(#paint3_radial_337_1398)"/>
<path d="M160.255 33.3654C175.759 50.3405 194.508 93.3024 183.299 111.003C172.069 128.704 134.732 91.9517 119.229 74.9766C103.725 58.0015 71.7913 32.6598 83.0005 14.959C94.2298 -2.7419 144.752 16.3904 160.255 33.3654Z" fill="url(#paint4_radial_337_1398)"/>
<path opacity="0.7" d="M87.0528 42.9618C81.6498 54.0904 66.469 61.1868 53.1429 58.7877C39.8169 56.4088 33.4058 45.4415 38.8088 34.313C44.2118 23.1844 59.3926 16.0879 72.7187 18.487C86.0447 20.866 92.4558 31.8332 87.0528 42.9618Z" fill="url(#paint5_radial_337_1398)"/>
<path d="M56.7718 95.742C56.7718 92.9599 57.2758 90.2987 58.2032 87.819C58.6064 86.7505 57.9814 85.5811 56.8726 85.2787L12.6608 73.4446C11.6527 73.1825 10.5842 73.747 10.2818 74.755C8.26579 81.4079 7.17712 88.4439 7.17712 95.742C7.17712 110.439 11.5721 124.108 19.0919 135.539C19.6766 136.406 20.8459 136.668 21.733 136.123L60.9853 112.515C61.9732 111.911 62.2353 110.6 61.5297 109.673C58.5459 105.822 56.7718 101.004 56.7718 95.7622V95.742Z" fill="url(#paint6_radial_337_1398)"/>
<path d="M116.709 116.709C115.963 117.334 115.177 117.878 114.35 118.342C111.669 119.914 110.479 123.16 111.749 126.003L123.684 152.453C125.075 155.518 128.745 156.848 131.749 155.336C135.519 153.421 139.127 151.102 142.534 148.32C150.619 141.708 156.506 133.422 160.114 124.37C161.364 121.245 159.772 117.697 156.606 116.568L129.168 106.75C126.265 105.701 123.16 107.193 121.89 109.995C120.741 112.536 119.007 114.854 116.709 116.729V116.709Z" fill="url(#paint7_radial_337_1398)"/>
</g>
<defs>
<radialGradient id="paint0_radial_337_1398" cx="0" cy="0" r="1" gradientUnits="userSpaceOnUse" gradientTransform="translate(54.8969 184.952) scale(199.911)">
<stop stop-color="#8229B5"/>
<stop offset="0.18" stop-color="#B529A7"/>
<stop offset="0.34" stop-color="#D93DA5"/>
<stop offset="0.55" stop-color="#FD84A0"/>
<stop offset="0.86" stop-color="#F8F969"/>
<stop offset="1" stop-color="#F9F9F9"/>
</radialGradient>
<radialGradient id="paint1_radial_337_1398" cx="0" cy="0" r="1" gradientUnits="userSpaceOnUse" gradientTransform="translate(94.7147 180.833) rotate(72.09) scale(209.467 289.064)">
<stop stop-color="#8229B5"/>
<stop offset="0.18" stop-color="#8229B5"/>
<stop offset="0.51" stop-color="#B529A7" stop-opacity="0"/>
<stop offset="0.81" stop-color="#D93DA5" stop-opacity="0"/>
</radialGradient>
<radialGradient id="paint2_radial_337_1398" cx="0" cy="0" r="1" gradientUnits="userSpaceOnUse" gradientTransform="translate(4.09265 -9.13256) scale(237.631 237.631)">
<stop stop-color="#F9F9F9"/>
<stop offset="1" stop-color="white" stop-opacity="0"/>
</radialGradient>
<radialGradient id="paint3_radial_337_1398" cx="0" cy="0" r="1" gradientUnits="userSpaceOnUse" gradientTransform="translate(132.847 52.971) rotate(34.36) scale(34.7012 21.7461)">
<stop stop-color="#F9F9F9"/>
<stop offset="1" stop-color="white" stop-opacity="0"/>
</radialGradient>
<radialGradient id="paint4_radial_337_1398" cx="0" cy="0" r="1" gradientUnits="userSpaceOnUse" gradientTransform="translate(225.212 -0.826663) scale(123.281 123.281)">
<stop stop-color="#F9F9F9"/>
<stop offset="1" stop-color="white" stop-opacity="0"/>
</radialGradient>
<radialGradient id="paint5_radial_337_1398" cx="0" cy="0" r="1" gradientUnits="userSpaceOnUse" gradientTransform="translate(62.7177 39.1031) rotate(-49.7) scale(19.8447)">
<stop stop-color="#F9F9F9"/>
<stop offset="1" stop-color="white" stop-opacity="0"/>
</radialGradient>
<radialGradient id="paint6_radial_337_1398" cx="0" cy="0" r="1" gradientUnits="userSpaceOnUse" gradientTransform="translate(115.902 -220.575) scale(351.396 351.396)">
<stop stop-color="#F9F9F9"/>
<stop offset="1" stop-color="white" stop-opacity="0"/>
</radialGradient>
<radialGradient id="paint7_radial_337_1398" cx="0" cy="0" r="1" gradientUnits="userSpaceOnUse" gradientTransform="translate(714.022 104.371) scale(607.958 607.958)">
<stop stop-color="#F9F9F9"/>
<stop offset="1" stop-color="white" stop-opacity="0"/>
</radialGradient>
<clipPath id="clip0_337_1398">
<rect width="191" height="191" fill="white"/>
</clipPath>
</defs>
</svg>
