<svg width="414" height="322" viewBox="0 0 414 322" fill="none" xmlns="http://www.w3.org/2000/svg">
<g clip-path="url(#clip0_337_750)">
<path d="M5.19555 230.706C28.5284 218.783 52.1217 207.354 75.9617 196.446C99.8018 185.539 123.71 175.207 147.921 165.384C172.131 155.56 196.697 146.189 221.388 137.394C246.078 128.6 270.946 120.326 295.992 112.602C321.039 104.877 346.25 97.7017 371.598 91.0611C377.986 89.3873 384.388 87.7546 390.79 86.1493C395.191 85.0517 399.852 83.419 404.403 83.5562C405.336 83.5836 405.843 83.5836 406.789 84.0089C406.295 83.7894 407.392 84.4343 407.186 84.2696C406.885 84.0364 407.488 84.6126 407.502 84.6126C407.79 84.6126 407.173 83.9541 407.228 84.105C407.063 83.6797 407.228 83.2955 407.159 83.858C407.132 84.0227 407.118 84.2422 407.132 84.4205C407.104 83.4053 407.214 83.9815 407.09 84.3794C407.008 84.6264 406.953 84.887 406.871 85.134C406.789 85.4084 406.679 85.6691 406.583 85.9298C406.816 85.2849 406.679 85.724 406.515 86.067C406.213 86.6844 405.898 87.3018 405.555 87.8918C404.774 89.2638 403.896 90.5809 402.978 91.8569C400.908 94.7656 398.385 97.7566 395.753 100.72C392.71 104.164 389.557 107.498 386.349 110.791C379.823 117.486 373.092 123.976 366.347 130.438C348.251 147.726 330.402 165.246 312.923 183.151C294.416 202.099 276.306 221.417 258.566 241.092C240.841 260.767 223.499 280.798 206.568 301.159C202.442 306.126 198.329 311.12 194.257 316.128L200.111 318.556C203.497 277.217 207.911 235.974 213.354 194.855C218.755 154.051 225.185 113.37 232.615 72.8818C236.824 49.9553 241.348 27.0837 246.201 4.26699H239.593C248.23 44.6182 258.937 84.5166 271.686 123.756C284.463 163.079 299.269 201.728 316.007 239.528C325.343 260.616 335.296 281.429 345.825 301.941L349.691 296.906C317.844 284.365 285.985 271.825 254.138 259.285C222.292 246.745 190.432 234.204 158.586 221.664C140.751 214.639 122.915 207.614 105.08 200.59C103.352 199.917 101.324 201.331 100.857 202.991C100.323 204.939 101.515 206.531 103.256 207.217C135.103 219.757 166.963 232.297 198.809 244.837C230.655 257.378 262.515 269.918 294.361 282.458C312.196 289.483 330.032 296.508 347.867 303.533C350.87 304.712 352.967 300.898 351.733 298.497C333.02 262.056 316.172 224.682 301.311 186.499C286.451 148.316 273.496 109.24 262.611 69.6576C256.496 47.4171 251.027 25.012 246.201 2.45592C245.502 -0.809497 240.292 -0.823217 239.593 2.45592C230.929 43.2462 223.279 84.2422 216.658 125.417C210.036 166.591 204.498 207.642 199.947 248.94C197.397 272.113 195.176 295.328 193.27 318.556C193.037 321.396 197.273 323.249 199.124 320.985C216.137 300.116 233.561 279.604 251.397 259.449C269.232 239.294 287.63 219.345 306.343 199.849C324.987 180.435 344.015 161.405 363.427 142.759C376.999 129.725 391.051 116.992 403.211 102.6C405.747 99.6088 408.228 96.5218 410.353 93.2289C411.793 90.9925 413.26 88.4955 413.794 85.8612C414.096 84.3657 414.219 82.5958 413.451 81.1963C412.3 79.0971 409.983 77.6839 407.721 77.1214C402.964 75.9415 397.851 77.3135 393.231 78.4797C367.636 84.9145 342.137 91.706 316.816 99.1561C291.496 106.606 265.873 114.756 240.69 123.386C215.493 132.016 190.487 141.209 165.688 150.936C140.888 160.664 115.965 171.091 91.4393 181.971C67.092 192.783 42.9914 204.116 19.1377 215.997C13.325 218.892 7.51238 221.829 1.72716 224.778C-2.20735 226.782 1.26105 232.709 5.18184 230.706H5.19555Z" fill="#231F20"/>
</g>
<defs>
<clipPath id="clip0_337_750">
<rect width="414" height="322" fill="white"/>
</clipPath>
</defs>
</svg>
