<svg width="156" height="161" viewBox="0 0 156 161" fill="none" xmlns="http://www.w3.org/2000/svg">
<path d="M112.81 153.569L112.09 154.263L6.52008 44.8126C2.36902 40.5093 0.480367 34.4636 1.12452 27.8602L112.81 153.569ZM112.81 153.569L112.09 154.263C116.245 158.571 122.1 160.543 128.504 159.871C134.825 159.212 140.956 156.05 145.8 151.029C150.643 146.008 153.681 139.665 154.315 133.14C154.365 132.631 154.4 132.128 154.42 131.628L154.45 131.628M112.81 153.569L154.45 131.628M154.45 131.628L154.45 130.628M154.45 131.628L154.45 130.628M154.45 130.628C154.45 125.008 152.549 119.939 148.93 116.187L43.3496 6.73666C39.1943 2.42908 33.3397 0.457182 26.9356 1.12866C20.6143 1.78842 14.4835 4.9501 9.64011 9.97105C4.79634 14.9924 1.75818 21.3354 1.12456 27.8597L154.45 130.628ZM150.334 132.74L150.335 132.739C150.871 127.251 149.316 122.413 146.07 119.048L40.4901 9.59724C37.2385 6.22647 32.595 4.63885 27.3444 5.19105C22.0062 5.75441 16.7264 8.44951 12.4888 12.8325C8.25241 17.2245 5.64195 22.7089 5.10531 28.2696C5.03773 28.9906 4.99983 29.684 4.99983 30.3722C4.99983 34.9866 6.54052 39.0299 9.36991 41.9731C9.37017 41.9734 9.37043 41.9737 9.3707 41.974L114.95 151.413L114.23 152.107L114.95 151.413C118.201 154.784 122.844 156.371 128.095 155.819L150.334 132.74ZM150.334 132.74C149.798 138.302 147.187 143.797 142.951 148.178C138.713 152.561 133.433 155.256 128.095 155.819L150.334 132.74Z" fill="white" stroke="white" stroke-width="2"/>
<path d="M150.334 132.74L150.334 132.739C150.87 127.251 149.316 122.413 146.069 119.048C142.828 115.687 138.174 114.09 132.924 114.642C127.586 115.205 122.306 117.9 118.069 122.282C113.832 126.674 111.221 132.159 110.685 137.72C110.617 138.441 110.579 139.135 110.579 139.823L150.334 132.74ZM150.334 132.74C149.797 138.302 147.186 143.797 142.95 148.178C138.713 152.561 133.433 155.256 128.095 155.819L150.334 132.74ZM110.579 139.813C110.579 144.427 112.12 148.47 114.949 151.414C118.201 154.784 122.844 156.371 128.094 155.819L110.579 139.813ZM110.579 139.813L109.579 139.813L110.579 139.813ZM154.314 133.14C153.681 139.664 150.643 146.007 145.799 151.029C140.956 156.05 134.825 159.212 128.503 159.871L154.314 133.14ZM154.314 133.14C154.397 132.29 154.439 131.46 154.439 130.628M154.314 133.14L154.439 130.628M154.439 130.628C154.439 125.008 152.538 119.939 148.919 116.187C144.764 111.88 138.909 109.908 132.505 110.579C126.184 111.239 120.053 114.401 115.209 119.422C110.366 124.443 107.328 130.786 106.694 137.31L154.439 130.628ZM112.089 154.263C116.245 158.571 122.099 160.543 128.503 159.871L106.694 137.311C106.05 143.914 107.938 149.96 112.089 154.263Z" fill="white" stroke="white" stroke-width="2"/>
</svg>
