<svg width="160" height="161" viewBox="0 0 160 161" fill="none" xmlns="http://www.w3.org/2000/svg">
<path fill-rule="evenodd" clip-rule="evenodd" d="M153.324 115.143C162.23 124.201 160.51 140.332 149.484 151.174C138.457 162.016 122.299 163.463 113.393 154.406L6.12225 45.3093C-2.7837 36.2517 -1.06462 20.12 9.96193 9.27793C20.9885 -1.5641 37.147 -3.01072 46.0529 6.0468L153.324 115.143ZM122.14 123.366C131.374 114.287 142.996 114.623 148.332 120.051C153.669 125.478 153.809 137.104 144.576 146.183C135.343 155.262 123.721 154.925 118.384 149.498C113.048 144.07 112.907 132.444 122.14 123.366ZM107.718 138.65C108.028 131.648 111.269 124.238 117.233 118.374C123.196 112.511 130.66 109.395 137.666 109.203L41.0616 10.9546C35.7249 5.52714 24.1029 5.19064 14.8697 14.2693C5.6366 23.3479 5.77694 34.974 11.1136 40.4015L107.718 138.65Z" fill="white"/>
</svg>
