<svg width="158" height="165" viewBox="0 0 158 165" fill="none" xmlns="http://www.w3.org/2000/svg">
<g id="Vector" style="mix-blend-mode:soft-light" opacity="0.6">
<path d="M78.5177 165C71.5817 164.535 62.4543 165.269 57.7153 159.483C54.8298 155.916 54.8568 150.588 54.837 146.176C54.8154 143.993 54.7938 141.737 54.6518 139.524C54.3768 134.896 52.072 130.361 47.1622 130.386C42.8492 130.445 39.7229 133.06 36.4832 135.174C32.8301 137.719 28.9576 140.236 24.7723 140.2C19.2908 140.377 14.7604 135.174 12.1266 131.232C8.70176 126.282 5.46571 120.818 2.50832 114.989C-1.03515 108.337 -1.46123 100.863 5.43874 96.6111C7.87477 95.0687 10.5643 94.0554 13.1873 93.0098C16.1644 91.8225 19.1883 90.6388 22.1619 89.3332C24.4955 88.3073 26.1728 87.1128 27.4403 85.574C32.7708 78.5203 18.3973 74.3074 13.8057 72.4942C11.0946 71.4845 8.31164 70.4927 5.76774 69.0059C1.30919 66.434 -0.298049 62.7951 0.234101 57.9401C0.53793 55.3252 1.41526 52.7354 2.99193 49.787C4.73041 46.539 6.76373 42.7673 8.89952 39.1283C11.0982 35.3692 15.2404 28.6508 19.4436 26.192C22.3489 24.4397 25.4807 24.2891 28.661 25.4351C32.0175 26.5184 35.8468 29.5924 38.8923 31.949C40.4114 33.1166 41.9827 34.3236 43.5522 35.4786C45.039 36.5726 46.4053 37.4353 47.7285 38.1168C49.8085 39.209 51.6279 38.7571 52.8846 36.4686C53.7907 34.8419 54.179 33.0592 54.4163 31.689C55.3638 26.1794 54.641 19.5274 54.864 14.1918C54.9754 8.91538 57.1777 3.82549 62.5136 1.93337C67.2383 0.17038 73.1135 0.0555978 78.6417 0C83.8356 0.139891 88.767 -0.116576 94.4211 1.50652C103.415 4.14114 103.854 11.8459 103.788 19.8502C103.797 21.5666 103.807 23.3403 103.885 25.0836C104.02 30.1143 106.5 35.0858 111.937 34.5262C114.129 34.3523 116.324 33.4968 118.648 31.9114C120.993 30.3116 123.195 28.606 125.475 26.9434C126.643 26.0915 127.826 25.2414 128.984 24.4092C131.078 22.8938 133.405 22.8543 135.83 23.7654C140.457 25.4405 144.573 32.7292 146.701 36.1332C149.004 40.0215 151.316 43.777 153.614 47.6742C154.405 49.0158 155.084 50.4218 155.699 51.7418C156.35 53.1372 156.659 54.5038 156.614 55.8041C156.542 58.0154 156.539 60.2698 156.19 62.4686C155.345 68.3889 149.324 70.5178 144.156 72.3077C141.004 73.4501 137.802 74.4885 134.782 76.0524C133.034 76.9617 131.819 77.837 130.843 78.8897C128.426 81.4544 128.664 84.3419 131.175 86.6949C132.54 87.9952 134.277 89.0641 136.484 89.9645C139.458 91.1751 142.437 92.2816 145.405 93.4205C147.956 94.3997 150.595 95.4113 152.958 97.0092C161.263 102.544 157.673 111.224 153.786 118.156C150.273 124.598 146.128 130.974 142.16 136.984C141 138.679 139.53 140.295 137.786 141.789C136.549 142.847 135.519 143.319 134.44 143.319C133.561 143.319 132.65 143.001 131.569 142.321C128.851 140.594 126.287 138.652 123.734 136.737C120.122 134.052 115.578 130.382 111.072 130.372C105.938 130.282 103.842 135.465 103.728 140.067C103.631 142.729 103.647 145.329 103.59 147.982C103.593 152.004 102.763 157.252 99.6437 160.238C94.5055 165.325 85.637 164.636 78.5213 164.998L78.5177 165Z" fill="#FF8D8D"/>
</g>
</svg>
